<mxfile host="app.diagrams.net" agent="Mozilla/5.0 (Windows NT 10.0; Win64; x64) AppleWebKit/537.36 (KHTML, like Gecko) Chrome/109.0.0.0 Safari/537.36" version="24.9.1">
  <diagram name="PÃ¡gina-1" id="GUME0Gg4GOfk3dZ2mUZx">
    <mxGraphModel dx="3675" dy="744" grid="1" gridSize="10" guides="1" tooltips="1" connect="1" arrows="1" fold="1" page="1" pageScale="1" pageWidth="827" pageHeight="1169" math="0" shadow="0">
      <root>
        <mxCell id="0" />
        <mxCell id="1" parent="0" />
        <mxCell id="kpir8nXRVRnAcubOY5GA-1" value="&lt;p style=&quot;margin:0px;margin-top:4px;text-align:center;&quot;&gt;&lt;i&gt;&amp;lt;&amp;lt;Interface&amp;gt;&amp;gt;&lt;/i&gt;&lt;br&gt;&lt;b&gt;MetodoPagamento&lt;/b&gt;&lt;/p&gt;&lt;hr size=&quot;1&quot; style=&quot;border-style:solid;&quot;&gt;&lt;p style=&quot;margin:0px;margin-left:4px;&quot;&gt;+ pagar(valor: double): boolean &lt;br&gt;&lt;/p&gt;" style="verticalAlign=top;align=left;overflow=fill;html=1;whiteSpace=wrap;" vertex="1" parent="1">
          <mxGeometry x="-2390" y="510" width="190" height="75" as="geometry" />
        </mxCell>
        <mxCell id="kpir8nXRVRnAcubOY5GA-2" value="PagamentoDinheiro" style="swimlane;fontStyle=1;align=center;verticalAlign=top;childLayout=stackLayout;horizontal=1;startSize=26;horizontalStack=0;resizeParent=1;resizeParentMax=0;resizeLast=0;collapsible=1;marginBottom=0;whiteSpace=wrap;html=1;fillColor=#BAC8D3;" vertex="1" parent="1">
          <mxGeometry x="-2245" y="270" width="250" height="150" as="geometry" />
        </mxCell>
        <mxCell id="kpir8nXRVRnAcubOY5GA-3" value="- valorAPagar: double&lt;div&gt;- scanner: Scanner&lt;/div&gt;&lt;div&gt;- output: OutputInterface&lt;/div&gt;" style="text;strokeColor=none;fillColor=none;align=left;verticalAlign=middle;spacingLeft=4;spacingRight=4;overflow=hidden;rotatable=0;points=[[0,0.5],[1,0.5]];portConstraint=eastwest;whiteSpace=wrap;html=1;" vertex="1" parent="kpir8nXRVRnAcubOY5GA-2">
          <mxGeometry y="26" width="250" height="54" as="geometry" />
        </mxCell>
        <mxCell id="kpir8nXRVRnAcubOY5GA-4" value="" style="line;strokeWidth=1;fillColor=none;align=left;verticalAlign=middle;spacingTop=-1;spacingLeft=3;spacingRight=3;rotatable=0;labelPosition=right;points=[];portConstraint=eastwest;strokeColor=inherit;" vertex="1" parent="kpir8nXRVRnAcubOY5GA-2">
          <mxGeometry y="80" width="250" height="8" as="geometry" />
        </mxCell>
        <mxCell id="kpir8nXRVRnAcubOY5GA-5" value="&lt;div&gt;&lt;span style=&quot;background-color: initial;&quot;&gt;+ PagamentoDinheiro(valor: double, scanner: Scanner, output: OutputInterface)&lt;/span&gt;&lt;/div&gt;&lt;div&gt;&lt;span style=&quot;background-color: initial;&quot;&gt;+ pagar(valor: double): boolean&lt;/span&gt;&lt;span style=&quot;background-color: initial;&quot;&gt;&amp;nbsp; &amp;nbsp; &amp;nbsp; &amp;nbsp;&amp;nbsp;&lt;/span&gt;&lt;br&gt;&lt;/div&gt;" style="text;strokeColor=none;fillColor=none;align=left;verticalAlign=middle;spacingLeft=4;spacingRight=4;overflow=hidden;rotatable=0;points=[[0,0.5],[1,0.5]];portConstraint=eastwest;whiteSpace=wrap;html=1;" vertex="1" parent="kpir8nXRVRnAcubOY5GA-2">
          <mxGeometry y="88" width="250" height="62" as="geometry" />
        </mxCell>
        <mxCell id="kpir8nXRVRnAcubOY5GA-6" style="edgeStyle=orthogonalEdgeStyle;rounded=0;orthogonalLoop=1;jettySize=auto;html=1;entryX=0.5;entryY=1;entryDx=0;entryDy=0;entryPerimeter=0;dashed=1;dashPattern=12 12;" edge="1" parent="1" source="kpir8nXRVRnAcubOY5GA-1" target="kpir8nXRVRnAcubOY5GA-5">
          <mxGeometry relative="1" as="geometry">
            <Array as="points">
              <mxPoint x="-2275" y="468" />
              <mxPoint x="-2120" y="468" />
            </Array>
          </mxGeometry>
        </mxCell>
      </root>
    </mxGraphModel>
  </diagram>
</mxfile>
